<?xml version="1.0" encoding="utf-8"?>
<!-- Generator: Adobe Illustrator 20.1.0, SVG Export Plug-In . SVG Version: 6.00 Build 0)  -->
<svg version="1.1" id="Layer_1" xmlns="http://www.w3.org/2000/svg" xmlns:xlink="http://www.w3.org/1999/xlink" x="0px" y="0px"
	 viewBox="0 0 9255 1018" style="enable-background:new 0 0 9255 1018;" xml:space="preserve">
<style type="text/css">
	.st0{fill:#FFFFFF;}
</style>
<g>
	<polygon class="st0" points="0,997.2 171.8,997.2 171.8,586.8 502.6,586.8 502.6,997.2 674.4,997.2 674.4,20.8 502.6,20.8 
		502.6,417.3 171.8,417.3 171.8,20.8 0,20.8 	"/>
	<polygon class="st0" points="851.9,997.2 1023.7,997.2 1023.7,20.8 851.9,20.8 	"/>
	<path class="st0" d="M1200.1,997.2H1448c59.9,0,168.3-6.9,238.6-57.6c56.5-42.7,115.3-115.3,115.3-232.9
		c0-164.9-98-219-159.1-243.2c28.8-17.3,103.8-63.4,103.8-186.8c0-66.9-32.3-138.3-78.4-182.1c-79.5-74.9-182.1-74.9-284.8-74.9
		h-182.1v977.6H1200.1z M1370.7,569.5h89.9c149.9,0,168.3,91.1,168.3,130.3c0,128-138.3,128-172.9,128h-86.5V569.5H1370.7z
		 M1370.7,189.1h71.5c98,0,132.6,47.3,132.6,106.1c0,106.1-107.2,106.1-147.6,106.1h-56.5V189.1L1370.7,189.1z"/>
	<path class="st0" d="M1925.2,997.2h247.9c59.9,0,168.3-6.9,238.6-57.6c56.5-42.7,115.3-115.3,115.3-232.9
		c0-164.9-98-219-159.1-243.2c28.8-17.3,103.8-63.4,103.8-186.8c0-66.9-32.3-138.3-78.4-182.1c-79.5-74.9-182.1-74.9-284.8-74.9
		h-182.1v977.6H1925.2z M2095.9,569.5h89.9c149.9,0,168.3,91.1,168.3,130.3c0,128-138.3,128-172.9,128h-86.5V569.5H2095.9z
		 M2095.9,189.1h71.5c98,0,132.6,47.3,132.6,106.1c0,106.1-107.2,106.1-147.6,106.1h-56.5V189.1L2095.9,189.1z"/>
	<polygon class="st0" points="2638.8,997.2 3136.9,997.2 3136.9,828.9 2810.6,828.9 2810.6,597.2 3123,597.2 3123,428.9 
		2810.6,428.9 2810.6,189.1 3136.9,189.1 3136.9,20.8 2638.8,20.8 	"/>
	<polygon class="st0" points="3392.8,997.2 3563.4,997.2 3563.4,189.1 3736.3,189.1 3736.3,20.8 3221,20.8 3221,189.1 3392.8,189.1 
			"/>
	<polygon class="st0" points="3917.3,997.2 4089.1,997.2 4089.1,189.1 4262,189.1 4262,20.8 3746.7,20.8 3746.7,189.1 3917.3,189.1 
			"/>
	<path class="st0" d="M4629.8,718.2c10.4,215.6,182.1,299.7,300.9,299.7c145.3,0,299.7-100.3,299.7-311.3
		c0-212.1-166-274.4-242.1-300.9c-93.4-33.4-153.3-51.9-153.3-136c0-57.6,41.5-99.1,94.5-99.1c46.1,0,96.8,21.9,103.8,109.5h175.2
		C5199.3,79.5,5042.5,0,4934.1,0c-156.8,0-270.9,123.4-270.9,279c0,206.4,148.7,252.5,220.2,281.3
		c115.3,46.1,176.4,64.6,176.4,164.9c0,73.8-59.9,123.4-128,123.4c-53,0-114.1-33.4-122.2-130.3L4629.8,718.2L4629.8,718.2z"/>
	<path class="st0" d="M5354.9,997.2h171.8V624.8h61.1c99.1,0,183.3,0,270.9-78.4c59.9-57.6,87.6-133.7,87.6-224.8
		s-27.7-166-87.6-224.8c-87.6-78.4-172.9-78.4-270.9-78.4h-232.9L5354.9,997.2L5354.9,997.2z M5526.7,189.1h61.1
		c70.3,0,187.9,5.8,187.9,133.7S5655.8,456.5,5582,456.5h-55.3V189.1L5526.7,189.1z"/>
	<path class="st0" d="M6006.3,511.9c0,280.1,217.9,506.1,484.2,506.1s484.2-226,484.2-506.1c0-289.4-221.3-510.7-484.2-510.7
		C6227.6,0,6006.3,222.5,6006.3,511.9L6006.3,511.9z M6178,510.7c0-187.9,138.3-341.2,312.4-341.2c174.1,0,312.4,153.3,312.4,341.2
		c0,181-136,337.8-312.4,337.8S6178,691.7,6178,510.7L6178,510.7z"/>
	<path class="st0" d="M7095.7,997.2h171.8V623.7h2.3l245.6,373.5h207.5l-251.3-360.8c46.1-11.5,99.1-25.4,153.3-80.7
		c66.9-66.9,88.8-169.5,88.8-234c0-111.8-56.5-191.4-108.4-236.3c-53-45-118.7-65.7-224.8-65.7h-283.6v977.6H7095.7z M7267.5,189.1
		H7377c133.7,0,164.9,93.4,164.9,147.6c0,51.9-24.2,151-164.9,151h-109.5V189.1L7267.5,189.1z"/>
	<polygon class="st0" points="7940.7,997.2 8111.4,997.2 8111.4,189.1 8284.3,189.1 8284.3,20.8 7769,20.8 7769,189.1 7940.7,189.1 
			"/>
	<path class="st0" d="M8301.6,718.2c10.4,215.6,182.1,299.7,300.9,299.7c145.3,0,299.7-100.3,299.7-311.3
		c0-212.1-166-274.4-242.1-300.9c-93.4-33.4-153.3-51.9-153.3-136c0-57.6,41.5-99.1,94.5-99.1c46.1,0,96.8,21.9,103.8,109.5h175.2
		C8872.2,79.5,8714.3,0,8607.1,0c-156.8,0-270.9,123.4-270.9,279c0,206.4,148.7,252.5,220.2,281.3
		c115.3,46.1,176.4,64.6,176.4,164.9c0,73.8-59.9,123.4-128,123.4c-53,0-114.1-33.4-122.2-130.3L8301.6,718.2L8301.6,718.2z"/>
	<path class="st0" d="M9120.1,114.1c-74.9,0-134.9,61.1-134.9,136c0,73.8,61.1,134.9,134.9,134.9c74.9,0,134.9-61.1,134.9-134.9
		C9255,175.2,9193.9,114.1,9120.1,114.1L9120.1,114.1L9120.1,114.1z M9120.1,366.6c-64.6,0-117.6-53-117.6-116.4
		c0-64.6,51.9-117.6,117.6-117.6c63.4,0,116.4,51.9,116.4,117.6C9236.5,313.6,9183.5,366.6,9120.1,366.6L9120.1,366.6L9120.1,366.6z
		"/>
	<path class="st0" d="M9060.1,327.4V171.8h69.2c13.8,0,24.2,1.2,31.1,4.6c6.9,2.3,12.7,8.1,17.3,15c4.6,6.9,6.9,15,6.9,23.1
		c0,11.5-3.5,20.8-10.4,27.7c-6.9,8.1-18.4,12.7-33.4,15c5.8,2.3,9.2,4.6,12.7,8.1c5.8,5.8,11.5,12.7,17.3,20.8l27.7,42.7h-25.4
		l-20.8-32.3c-5.8-9.2-11.5-16.1-15-21.9c-3.5-4.6-6.9-8.1-10.4-10.4c-3.5-2.3-5.8-3.5-9.2-4.6c-2.3,0-5.8-1.2-11.5-1.2h-26.5v69.2
		L9060.1,327.4L9060.1,327.4z M9079.7,239.8h43.8c9.2,0,17.3-1.2,21.9-3.5c5.8-2.3,9.2-4.6,12.7-9.2c2.3-4.6,4.6-9.2,4.6-13.8
		c0-6.9-2.3-13.8-8.1-18.4c-5.8-4.6-13.8-6.9-25.4-6.9h-49.6V239.8L9079.7,239.8z"/>
</g>
</svg>
