<?xml version="1.0" encoding="utf-8"?>
<!-- Generator: Adobe Illustrator 20.1.0, SVG Export Plug-In . SVG Version: 6.00 Build 0)  -->
<svg version="1.1" id="Layer_1" xmlns="http://www.w3.org/2000/svg" xmlns:xlink="http://www.w3.org/1999/xlink" x="0px" y="0px"
	 viewBox="0 0 871.7 114.6" style="enable-background:new 0 0 871.7 114.6;" xml:space="preserve">
<style type="text/css">
	.st0{fill:#FFFFFF;}
	.st1{fill-rule:evenodd;clip-rule:evenodd;fill:#FFFFFF;}
</style>
<g>
	<polygon class="st0" points="38.4,100.5 53.3,100.5 53.3,64.9 82,64.9 82,100.5 96.9,100.5 96.9,15.8 82,15.8 82,50.2 53.3,50.2 
		53.3,15.8 38.4,15.8 38.4,100.5 	"/>
	<polygon class="st0" points="112.3,100.5 127.2,100.5 127.2,15.8 112.3,15.8 112.3,100.5 	"/>
	<path class="st0" d="M142.5,100.5h21.5c5.2,0,14.6-0.6,20.7-5c4.9-3.7,10-10,10-20.2c0-14.3-8.5-19-13.8-21.1c2.5-1.5,9-5.5,9-16.2
		c0-5.8-2.8-12-6.8-15.8c-6.9-6.5-15.8-6.5-24.7-6.5h-15.8V100.5L142.5,100.5z M157.3,63.4h7.8c13,0,14.6,7.9,14.6,11.3
		c0,11.1-12,11.1-15,11.1h-7.5V63.4L157.3,63.4z M157.3,30.4h6.2c8.5,0,11.5,4.1,11.5,9.2c0,9.2-9.3,9.2-12.8,9.2h-4.9V30.4
		L157.3,30.4z"/>
	<path class="st0" d="M205.4,100.5h21.5c5.2,0,14.6-0.6,20.7-5c4.9-3.7,10-10,10-20.2c0-14.3-8.5-19-13.8-21.1c2.5-1.5,9-5.5,9-16.2
		c0-5.8-2.8-12-6.8-15.8c-6.9-6.5-15.8-6.5-24.7-6.5h-15.8V100.5L205.4,100.5z M220.2,63.4h7.8c13,0,14.6,7.9,14.6,11.3
		c0,11.1-12,11.1-15,11.1h-7.5V63.4L220.2,63.4z M220.2,30.4h6.2c8.5,0,11.5,4.1,11.5,9.2c0,9.2-9.3,9.2-12.8,9.2h-4.9V30.4
		L220.2,30.4z"/>
	<polygon class="st0" points="267.3,100.5 310.5,100.5 310.5,85.9 282.2,85.9 282.2,65.8 309.3,65.8 309.3,51.2 282.2,51.2 
		282.2,30.4 310.5,30.4 310.5,15.8 267.3,15.8 267.3,100.5 	"/>
	<polygon class="st0" points="332.7,100.5 347.5,100.5 347.5,30.4 362.5,30.4 362.5,15.8 317.8,15.8 317.8,30.4 332.7,30.4 
		332.7,100.5 	"/>
	<polygon class="st0" points="378.2,100.5 393.1,100.5 393.1,30.4 408.1,30.4 408.1,15.8 363.4,15.8 363.4,30.4 378.2,30.4 
		378.2,100.5 	"/>
	<path class="st0" d="M440,76.3c0.9,18.7,15.8,26,26.1,26c12.6,0,26-8.7,26-27c0-18.4-14.4-23.8-21-26.1
		c-8.1-2.9-13.3-4.5-13.3-11.8c0-5,3.6-8.6,8.2-8.6c4,0,8.4,1.9,9,9.5h15.2C489.4,20.9,475.8,14,466.4,14
		c-13.6,0-23.5,10.7-23.5,24.2c0,17.9,12.9,21.9,19.1,24.4c10,4,15.3,5.6,15.3,14.3c0,6.4-5.2,10.7-11.1,10.7
		c-4.6,0-9.9-2.9-10.6-11.3H440L440,76.3z"/>
	<path class="st0" d="M502.9,100.5h14.9V68.2h5.3c8.6,0,15.9,0,23.5-6.8c5.2-5,7.6-11.6,7.6-19.5c0-7.9-2.4-14.4-7.6-19.5
		c-7.6-6.8-15-6.8-23.5-6.8h-20.2V100.5L502.9,100.5z M517.8,30.4h5.3c6.1,0,16.3,0.5,16.3,11.6c0,11.1-10.4,11.6-16.8,11.6h-4.8
		V30.4L517.8,30.4z"/>
	<path class="st0" d="M559.4,58.4c0,24.3,18.9,43.9,42,43.9s42-19.6,42-43.9c0-25.1-19.2-44.3-42-44.3
		C578.6,14,559.4,33.3,559.4,58.4L559.4,58.4z M574.3,58.3c0-16.3,12-29.6,27.1-29.6c15.1,0,27.1,13.3,27.1,29.6
		c0,15.7-11.8,29.3-27.1,29.3C586.1,87.6,574.3,74,574.3,58.3L574.3,58.3z"/>
	<path class="st0" d="M653.9,100.5h14.9V68.1h0.2l21.3,32.4h18l-21.8-31.3c4-1,8.6-2.2,13.3-7c5.8-5.8,7.7-14.7,7.7-20.3
		c0-9.7-4.9-16.6-9.4-20.5c-4.6-3.9-10.3-5.7-19.5-5.7h-24.6V100.5L653.9,100.5z M668.8,30.4h9.5c11.6,0,14.3,8.1,14.3,12.8
		c0,4.5-2.1,13.1-14.3,13.1h-9.5V30.4L668.8,30.4z"/>
	<polygon class="st0" points="727.2,100.5 742,100.5 742,30.4 757,30.4 757,15.8 712.3,15.8 712.3,30.4 727.2,30.4 727.2,100.5 	"/>
	<path class="st0" d="M758.5,76.3c0.9,18.7,15.8,26,26.1,26c12.6,0,26-8.7,26-27c0-18.4-14.4-23.8-21-26.1
		c-8.1-2.9-13.3-4.5-13.3-11.8c0-5,3.6-8.6,8.2-8.6c4,0,8.4,1.9,9,9.5h15.2C808,20.9,794.3,14,785,14c-13.6,0-23.5,10.7-23.5,24.2
		c0,17.9,12.9,21.9,19.1,24.4c10,4,15.3,5.6,15.3,14.3c0,6.4-5.2,10.7-11.1,10.7c-4.6,0-9.9-2.9-10.6-11.3H758.5L758.5,76.3z"/>
	<path class="st1" d="M829.5,23.9c-6.5,0-11.7,5.3-11.7,11.8c0,6.4,5.3,11.7,11.7,11.7c6.5,0,11.7-5.3,11.7-11.7
		C841.2,29.2,835.9,23.9,829.5,23.9L829.5,23.9L829.5,23.9z M829.5,45.8c-5.6,0-10.2-4.6-10.2-10.1c0-5.6,4.5-10.2,10.2-10.2
		c5.5,0,10.1,4.5,10.1,10.2C839.6,41.2,835,45.8,829.5,45.8L829.5,45.8L829.5,45.8z"/>
	<path class="st1" d="M824.3,42.4V28.9h6c1.2,0,2.1,0.1,2.7,0.4c0.6,0.2,1.1,0.7,1.5,1.3c0.4,0.6,0.6,1.3,0.6,2c0,1-0.3,1.8-0.9,2.4
		c-0.6,0.7-1.6,1.1-2.9,1.3c0.5,0.2,0.8,0.4,1.1,0.7c0.5,0.5,1,1.1,1.5,1.8l2.4,3.7h-2.2l-1.8-2.8c-0.5-0.8-1-1.4-1.3-1.9
		c-0.3-0.4-0.6-0.7-0.9-0.9c-0.3-0.2-0.5-0.3-0.8-0.4c-0.2,0-0.5-0.1-1-0.1H826v6H824.3L824.3,42.4z M826,34.8h3.8
		c0.8,0,1.5-0.1,1.9-0.3c0.5-0.2,0.8-0.4,1.1-0.8c0.2-0.4,0.4-0.8,0.4-1.2c0-0.6-0.2-1.2-0.7-1.6c-0.5-0.4-1.2-0.6-2.2-0.6H826V34.8
		L826,34.8z"/>
</g>
</svg>
